<svg width="30.000000" height="30.000000" viewBox="0 0 30 30" fill="none" xmlns="http://www.w3.org/2000/svg" xmlns:xlink="http://www.w3.org/1999/xlink">
	<desc>
			Created with Pixso.
	</desc>
	<defs/>
	<path id="Vector" d="M26.78 -0.83L3.21 -0.83C2.36 -0.83 1.54 -0.49 0.94 0.13C0.33 0.74 0 1.57 0 2.43L0 26.36C0 27.22 0.33 28.05 0.94 28.66C1.54 29.28 2.36 29.62 3.21 29.62L12.4 29.62L12.4 19.27L8.18 19.27L8.18 14.39L12.4 14.39L12.4 10.68C12.4 6.46 14.88 4.12 18.67 4.12C20.49 4.12 22.39 4.45 22.39 4.45L22.39 8.6L20.3 8.6C18.23 8.6 17.59 9.9 17.59 11.23L17.59 14.39L22.2 14.39L21.46 19.27L17.59 19.27L17.59 29.62L26.78 29.62C27.63 29.62 28.45 29.28 29.05 28.66C29.66 28.05 30 27.22 30 26.36L30 2.43C30 1.57 29.66 0.74 29.05 0.13C28.45 -0.49 27.63 -0.83 26.78 -0.83Z" fill="#F1F1F1" fill-opacity="1.000000" fill-rule="nonzero"/>
</svg>
