<svg width="30.000000" height="35.000000" viewBox="0 0 30 35" fill="none" xmlns="http://www.w3.org/2000/svg" xmlns:xlink="http://www.w3.org/1999/xlink">
	<desc>
			Created with Pixso.
	</desc>
	<defs>
		<clipPath id="clip10_110">
			<rect id="fa-brands:instagram-square" width="30.000000" height="34.799999" fill="white" fill-opacity="0"/>
		</clipPath>
	</defs>
	<rect id="fa-brands:instagram-square" width="30.000000" height="34.799999" fill="#FFFFFF" fill-opacity="0"/>
	<g clip-path="url(#clip10_110)">
		<path id="Vector" d="M15 13.77C14.29 13.77 13.6 13.98 13.01 14.38C12.42 14.78 11.97 15.35 11.7 16.01C11.43 16.67 11.36 17.4 11.49 18.1C11.63 18.81 11.97 19.45 12.47 19.96C12.97 20.47 13.61 20.81 14.3 20.95C14.99 21.09 15.71 21.02 16.36 20.74C17.02 20.47 17.57 20.01 17.97 19.41C18.36 18.81 18.57 18.11 18.57 17.39C18.57 16.43 18.19 15.51 17.52 14.83C16.85 14.15 15.94 13.77 15 13.77ZM23.35 10.98C23.16 10.51 22.89 10.09 22.54 9.73C22.19 9.38 21.77 9.1 21.31 8.92C19.9 8.35 16.56 8.48 15 8.48C13.43 8.48 10.09 8.35 8.68 8.92C8.22 9.1 7.8 9.38 7.45 9.73C7.1 10.09 6.83 10.51 6.64 10.98C6.09 12.41 6.21 15.81 6.21 17.39C6.21 18.98 6.09 22.37 6.65 23.81C6.83 24.27 7.1 24.7 7.45 25.05C7.8 25.41 8.22 25.69 8.68 25.87C10.09 26.44 13.44 26.31 15 26.31C16.56 26.31 19.9 26.44 21.31 25.87C21.77 25.69 22.19 25.41 22.54 25.05C22.89 24.7 23.17 24.27 23.35 23.81C23.91 22.38 23.78 18.98 23.78 17.39C23.78 15.81 23.91 12.42 23.35 10.98L23.35 10.98ZM15 22.97C13.91 22.97 12.85 22.64 11.94 22.03C11.04 21.42 10.34 20.55 9.92 19.53C9.51 18.51 9.4 17.39 9.61 16.31C9.82 15.23 10.34 14.23 11.11 13.45C11.88 12.67 12.86 12.14 13.92 11.93C14.99 11.71 16.09 11.82 17.1 12.25C18.1 12.67 18.96 13.38 19.56 14.3C20.16 15.22 20.49 16.29 20.49 17.39C20.49 18.13 20.35 18.85 20.07 19.53C19.79 20.21 19.39 20.82 18.88 21.34C18.37 21.86 17.76 22.27 17.1 22.55C16.43 22.83 15.72 22.97 15 22.97ZM20.71 12.89C20.46 12.89 20.21 12.81 20 12.67C19.79 12.53 19.62 12.32 19.53 12.09C19.43 11.85 19.41 11.59 19.45 11.33C19.5 11.08 19.63 10.85 19.81 10.67C19.98 10.49 20.21 10.36 20.46 10.31C20.71 10.26 20.97 10.29 21.2 10.39C21.44 10.48 21.64 10.65 21.78 10.86C21.92 11.08 21.99 11.33 21.99 11.59C21.99 11.76 21.96 11.93 21.9 12.09C21.83 12.24 21.74 12.39 21.62 12.51C21.5 12.63 21.36 12.73 21.21 12.79C21.05 12.86 20.88 12.89 20.72 12.89L20.71 12.89ZM26.78 2.17L3.21 2.17C2.36 2.17 1.54 2.51 0.94 3.13C0.33 3.74 0 4.57 0 5.43L0 29.36C0 30.22 0.33 31.05 0.94 31.66C1.54 32.28 2.36 32.62 3.21 32.62L26.78 32.62C27.63 32.62 28.45 32.28 29.05 31.66C29.66 31.05 30 30.22 30 29.36L30 5.43C30 4.57 29.66 3.74 29.05 3.13C28.45 2.51 27.63 2.17 26.78 2.17ZM25.63 21.88C25.55 23.62 25.16 25.17 23.9 26.43C22.65 27.7 21.13 28.11 19.42 28.19C17.65 28.29 12.35 28.29 10.58 28.19C8.86 28.1 7.35 27.71 6.09 26.43C4.84 25.16 4.44 23.62 4.36 21.88C4.26 20.09 4.26 14.7 4.36 12.91C4.45 11.17 4.83 9.62 6.09 8.35C7.35 7.09 8.87 6.69 10.58 6.6C12.35 6.5 17.65 6.5 19.42 6.6C21.13 6.69 22.65 7.09 23.9 8.36C25.15 9.63 25.55 11.17 25.63 12.92C25.73 14.71 25.73 20.08 25.63 21.88Z" fill="#F1F1F1" fill-opacity="1.000000" fill-rule="nonzero"/>
	</g>
</svg>
