<svg width="38.000000" height="43.000000" viewBox="0 0 38 43" fill="none" xmlns="http://www.w3.org/2000/svg" xmlns:xlink="http://www.w3.org/1999/xlink">
	<desc>
			Created with Pixso.
	</desc>
	<defs>
		<filter id="filter_10_124_dd" x="0.000000" y="0.000000" width="38.000000" height="42.800049" filterUnits="userSpaceOnUse" color-interpolation-filters="sRGB">
			<feFlood flood-opacity="0" result="BackgroundImageFix"/>
			<feColorMatrix in="SourceAlpha" type="matrix" values="0 0 0 0 0 0 0 0 0 0 0 0 0 0 0 0 0 0 127 0" result="hardAlpha"/>
			<feOffset dx="0" dy="4"/>
			<feGaussianBlur stdDeviation="1.33333"/>
			<feComposite in2="hardAlpha" operator="out" k2="-1" k3="1"/>
			<feColorMatrix type="matrix" values="0 0 0 0 0 0 0 0 0 0 0 0 0 0 0 0 0 0 0.25 0"/>
			<feBlend mode="normal" in2="BackgroundImageFix" result="effect_dropShadow_1"/>
			<feBlend mode="normal" in="SourceGraphic" in2="effect_dropShadow_1" result="shape"/>
		</filter>
		<clipPath id="clip10_124">
			<rect id="fa-brands:twitter-square" width="30.000000" height="34.799999" transform="translate(4.000000 0.000000)" fill="white" fill-opacity="0"/>
		</clipPath>
	</defs>
	<g filter="url(#filter_10_124_dd)">
		<rect id="fa-brands:twitter-square" width="30.000000" height="34.799999" transform="translate(4.000000 0.000000)" fill="#FFFFFF" fill-opacity="0"/>
		<g clip-path="url(#clip10_124)">
			<path id="Vector" d="M30.78 2.17L7.21 2.17C5.43 2.17 4 3.63 4 5.43L4 29.36C4 31.16 5.43 32.62 7.21 32.62L30.78 32.62C32.56 32.62 34 31.16 34 29.36L34 5.43C34 3.63 32.56 2.17 30.78 2.17ZM27.51 12.96C27.52 13.15 27.52 13.35 27.52 13.54C27.52 19.43 23.1 26.22 15.02 26.22C12.53 26.22 10.22 25.49 8.28 24.23C8.64 24.27 8.98 24.28 9.34 24.28C11.39 24.28 13.28 23.57 14.79 22.38C12.86 22.34 11.24 21.05 10.68 19.28C11.36 19.39 11.97 19.39 12.67 19.2C10.66 18.79 9.15 16.99 9.15 14.83L9.15 14.77C9.73 15.1 10.42 15.31 11.13 15.34C10.53 14.93 10.04 14.38 9.7 13.73C9.35 13.08 9.18 12.36 9.18 11.62C9.18 10.8 9.39 10.03 9.77 9.37C11.94 12.08 15.18 13.85 18.83 14.04C18.2 11.01 20.43 8.56 23.11 8.56C24.38 8.56 25.52 9.1 26.32 9.97C27.31 9.78 28.26 9.4 29.11 8.89C28.78 9.93 28.09 10.8 27.18 11.35C28.06 11.25 28.92 11 29.71 10.65C29.11 11.54 28.36 12.33 27.51 12.96Z" fill="#F1F1F1" fill-opacity="1.000000" fill-rule="nonzero"/>
		</g>
	</g>
</svg>
